<svg xmlns="http://www.w3.org/2000/svg" xmlns:xlink="http://www.w3.org/1999/xlink" width="997.303" height="999.098" viewBox="0 0 997.303 999.098"><defs><style>.a{fill:none;}.b{fill:#d72a32;}.c{clip-path:url(#a);}</style><clipPath id="a"><rect class="a" width="997.303" height="999.098"/></clipPath></defs><g transform="translate(-58.03 -56.546)"><circle class="b" cx="491.315" cy="491.315" r="491.315" transform="translate(62.711 66.412)"/><g class="c" transform="translate(58.03 56.546)"><path class="b" d="M343.018,199.826c0,4.647,1.432,2.97,1.712,3.668C344.346,195.529,342.774,199.826,343.018,199.826Z" transform="translate(652.573 297.86)"/><path class="b" d="M342.135,184.1l.839,1.223-3.424-10.76Z" transform="translate(643.988 237.741)"/><path class="b" d="M335.669,157.49c-.559,7.2,7.791,24.456,9.433,37.243V196.9l3.249,5.136c-1.991-7.476-4.088-16.071-6.6-23.967S336.892,162.765,335.669,157.49Z" transform="translate(634.244 195.174)"/><path class="b" d="M334.191,147.27c0,2.55-3.843-7.407,2.97,8.42l-.349-1.607C336.217,152.65,335.449,150.659,334.191,147.27Z" transform="translate(627.931 167.733)"/><path class="b" d="M334.3,149.53C337.132,156.517,333.254,144.639,334.3,149.53Z" transform="translate(630.44 172.285)"/><path class="b" d="M330.856,143.049l4.926,8.734c-.349-2.131-3.878-10.481-2.166-7.476C328.969,135.154,329.319,137.355,330.856,143.049Z" transform="translate(619.737 146.834)"/><path class="b" d="M328.51,137.3c.908,1.467,1.782,2.97,2.55,4.472a9.082,9.082,0,0,0-2.55-4.472Z" transform="translate(616.458 144.827)"/><path class="b" d="M334.446,148.223l-5.206-9.642c.245,1.5-.419,1.956,2.341,4.437C330.533,142.528,332.07,144.2,334.446,148.223Z" transform="translate(618.278 148.019)"/><path class="b" d="M331.684,143c1.887,5.275,4.122,12.123-.454,3.249,3.843,8.664,5.66,12.3,5.869,11.459a16.773,16.773,0,0,0-1.188-4.4A80.026,80.026,0,0,0,331.684,143Z" transform="translate(623.241 159.041)"/><path class="b" d="M334.62,156.749c.559,2.411,1.118,4.786,1.5,7.232l2.55,5.869a72.752,72.752,0,0,1-2.166-7.931C335.738,158.915,334.9,156.435,334.62,156.749Z" transform="translate(631.694 193.26)"/><path class="b" d="M322.179,123.738c-.8-.245.594,3.494.419,4.577,1.537,1.922,2.9,3.948,4.3,5.974C325.323,130.76,321.655,124.681,322.179,123.738Z" transform="translate(600.045 110.98)"/><path class="b" d="M326.878,131.259l-6.708-8.769C325.376,130.945,326.564,132.2,326.878,131.259Z" transform="translate(595.661 107.896)"/><path class="b" d="M328.717,139.369c3.494,4.961,6.184,10.481,9.328,15.442-3.494-6.254-6.987-12.507-10.935-18.482Z" transform="translate(612.967 142.408)"/><path class="b" d="M317.7,116.229c1.572,1.432,3.074,2.9,4.646,4.367l-3.983-3.983-4.193-3.843Z" transform="translate(580.698 83.657)"/><path class="b" d="M319.89,119.395c3.808,2.865-2.83-5.9.839-2.62a146.739,146.739,0,0,0-14.5-13.975,108.621,108.621,0,0,1,13.66,16.595Z" transform="translate(560.899 58.795)"/><path class="b" d="M304.06,101c2.306,2.061,4.821,4.088,7.581,6.324A93.16,93.16,0,0,0,304.06,101Z" transform="translate(555.488 54.307)"/><path class="b" d="M319.943,123.711a23.057,23.057,0,0,0-3.773-7.931l1.293,4.4C318.231,121.23,319.07,122.453,319.943,123.711Z" transform="translate(585.686 91.163)"/><path class="b" d="M320.45,122.641h0L315,114.85Z" transform="translate(582.768 88.844)"/><path class="b" d="M317.879,118.923l-.629-.873A1.258,1.258,0,0,0,317.879,118.923Z" transform="translate(588.379 96.824)"/><path class="b" d="M329.671,136.7c-3.913-5.171-11.319-16.246-6.009-4.437C326.841,135.726,323.767,128.949,329.671,136.7Z" transform="translate(599.75 119.185)"/><path class="b" d="M317.88,119.85c2.131,3.249,4.018,6.638,6.044,9.922.21-.419-.419-2.481,1.642,0C322.981,126.453,320.57,123.064,317.88,119.85Z" transform="translate(589.95 101.313)"/><path class="b" d="M316.82,118.61l3.7,4.332-2.411-3.564Z" transform="translate(587.307 98.22)"/><path class="b" d="M316.108,114.018a77.9,77.9,0,0,1-5.66-5.625l-6.219-6.254c2.166,2.55,4.507,5,6.638,7.581l6.533,7.651C318.31,117.757,320.895,119.364,316.108,114.018Z" transform="translate(555.911 57.15)"/><path class="b" d="M312.6,111.658l-.734-.838C312.324,111.449,312.5,111.9,312.6,111.658Z" transform="translate(574.963 78.795)"/><path class="b" d="M291.5,90.11l.594.873h.314Z" transform="translate(524.167 27.151)"/><path class="b" d="M308.734,107.569a47.371,47.371,0,0,0,7.511,7.861c-2.55-2.76-5.24-5.695-8.035-8.874C307.791,106.381,307.616,106.416,308.734,107.569Z" transform="translate(565.033 67.967)"/><path class="b" d="M300.48,97.67c1.712,2.026,3.494,4.262,5.59,6.743a27.737,27.737,0,0,0-5.59-6.743Z" transform="translate(546.56 46.003)"/><path class="b" d="M311.763,110.765l.524.524C311.519,109.822,311.519,110.066,311.763,110.765Z" transform="translate(574.336 77.277)"/><path class="b" d="M315.1,113.687a64,64,0,0,0-4.821-4.647c1.991,2.306,3.843,4.437,5.555,6.219A14.811,14.811,0,0,1,315.1,113.687Z" transform="translate(570.998 74.356)"/><path class="b" d="M292.487,95.052a19.006,19.006,0,0,1,7.826,4.018,74.157,74.157,0,0,1,6.254,4.751,76.336,76.336,0,0,1,6.044,6.079c8.979,6.393,6.6-1.677.838-10.027-.7.28-.908.489-10.481-5.9,2.865,2.83,18.307,17.468,10.2,12.3-5.869-4.716-8.28-6.673-9.782-8.21s-2.061-2.62-4.716-5.206c1.921,2.62-2.271,0-6.743-2.48s-9.538-5.066-8.944-3.109c3.808,2.2,7.372,4.751,11.005,7.232C293.989,95.052,289.867,92.432,292.487,95.052Z" transform="translate(502.812 18.33)"/><path class="b" d="M307.891,104.909l3.494,3.144c-3.668-3.983-6.254-6.987-10.935-12.368-6.428-4.647-7.966-5.345-8.7-5.345,5.8,5.206,11.774,10.167,17.468,15.512Z" transform="translate(524.791 27.724)"/><path class="b" d="M312.682,110.213c-3.494-1.747-12.333-8.909-8.42-3a87.88,87.88,0,0,0,8.315,7.3,32.281,32.281,0,0,1,5.59,4.158c-15.686-15.9,5.031,4.088-5.485-8.21,3.214,3,6.009,5.834,8.629,8.49-2.655-3.039-5.171-6.044-7.511-8.874l.279.419h0c.559.838.7,1.153,0,.28l-.349-.314a2.76,2.76,0,0,1-1.083-.314c-4.262-4.926-.419-1.013,1.083.314h.349c-2.62-2.655-5.45-5.136-8.28-7.616L297.38,95.4C300.629,98.894,305.136,102.807,312.682,110.213Z" transform="translate(538.83 40.342)"/><path class="b" d="M320.459,127.278c-.245-.664,0-.7,0-.8C319.446,125.391,319.062,125.007,320.459,127.278Z" transform="translate(594.114 115.685)"/><path class="b" d="M320.65,131.829a31.444,31.444,0,0,1,4.961,6.568c2.061,4.053-.629.349-.908.8,2.061,2.446,6.778,8.839,2.166,0l-1.013-1.223a90.515,90.515,0,0,1-8.035-17.468A39.259,39.259,0,0,0,320.65,131.829Z" transform="translate(589.8 102.958)"/><path class="b" d="M319.542,121.055c-3.913-4.821-8.245-9.258-12.472-13.765l5.206,7.966.279-.838C319.053,122.7,318.215,120.426,319.542,121.055Z" transform="translate(562.994 69.992)"/><path class="b" d="M296.142,92.892l2.9.384c-3.179-1.852-6.6-3.494-9.852-5.066Z" transform="translate(518.407 22.413)"/><path class="b" d="M288.662,87.9l1.537-.559c-1.887-1.083-3.843-2.061-5.73-3.109Z" transform="translate(506.637 12.488)"/><path class="b" d="M81,270.44l2.97,4.4A26.472,26.472,0,0,0,81,270.44Z" transform="translate(-0.75 476.834)"/><path class="b" d="M76.568,261.114l-1.048-.524C76.673,262.022,77.2,262.512,76.568,261.114Z" transform="translate(-14.416 452.272)"/><path class="b" d="M135.149,78.29c-7.407,3.214-16.106,6.428-14.429,7.2h2.9a99.437,99.437,0,0,1,11.529-7.2Z" transform="translate(97.774 -2.324)"/><path class="b" d="M62.2,177.811l.873-2.166-.245-5.485C62.654,172.466,62.27,175.051,62.2,177.811Z" transform="translate(-47.631 226.769)"/><path class="b" d="M65.685,174.25l-2.795,9.922C63.659,181.936,64.532,178.757,65.685,174.25Z" transform="translate(-45.911 236.968)"/><path class="b" d="M122.09,314.376c1.956.769,3.913,1.537,5.974,2.2C120.064,311.2,123.173,314.132,122.09,314.376Z" transform="translate(101.714 583.859)"/><path class="b" d="M232.5,60.654c-6.778-1.467-12.228-2.411-17.014-3.074C223.7,59.467,230.163,61.633,232.5,60.654Z" transform="translate(334.623 -53.968)"/><path class="b" d="M74.841,269.05c1.922,2.795,2.9,3.878,3.144,3.494C76.063,269.819,74.806,268.247,74.841,269.05Z" transform="translate(-16.112 472.844)"/><path class="b" d="M209.79,57.189l3.494.629a149.36,149.36,0,0,1,16.281,1.048,68.79,68.79,0,0,0-19.774-1.677Z" transform="translate(320.409 -55.254)"/><path class="b" d="M314.55,278.279l1.083-1.363C315.528,276.672,315.109,277.336,314.55,278.279Z" transform="translate(581.646 492.857)"/><path class="b" d="M342.013,219c-.21,2.236-.664,5.869-1.083,9.328C341.175,226.651,341.594,223.856,342.013,219Z" transform="translate(647.429 348.56)"/><path class="b" d="M261.79,70.62C266.507,72.751,262.628,70.62,261.79,70.62Z" transform="translate(450.08 -21.451)"/><path class="b" d="M268.936,75.671c-1.048-.349-1.887-.524-2.166-.28A4.227,4.227,0,0,1,268.936,75.671Z" transform="translate(462.499 -9.837)"/><path class="b" d="M195.559,59.55H195C196.642,59.829,196.4,59.76,195.559,59.55Z" transform="translate(283.528 -49.056)"/><path class="b" d="M267.765,74.284c-1.677-1.048-3.494-2.2-5.695-3.494A57.714,57.714,0,0,0,267.765,74.284Z" transform="translate(450.778 -21.027)"/><path class="b" d="M263.52,71.47l3.948,2.2C268.167,73.741,267.712,73.322,263.52,71.47Z" transform="translate(454.394 -19.331)"/><path class="b" d="M259.9,69.79c2.725,1.188,5.206,2.376,7.581,3.494-.873-.524-1.258-.769-.978-.7Z" transform="translate(445.367 -23.521)"/><path class="b" d="M218.29,338.665h1.083C224.264,337.407,222.133,337.792,218.29,338.665Z" transform="translate(341.606 644.956)"/><path class="b" d="M98.56,106.054l.349-.454-.559.489Z" transform="translate(42.515 65.778)"/><path class="b" d="M95.24,119.755a41.924,41.924,0,0,1,10.865-13.975c-2.411.454-4.926.873-7.3,1.4Z" transform="translate(34.759 66.227)"/><path class="b" d="M192.99,877.816,186,867.335c11.564,10.027,18.167,18.621,11.878,8.56-1.153.454-3.773-1.572-6.987-4.891a137.51,137.51,0,0,1-11.145-12.577c-3.773-4.751-7.581-9.5-10.761-12.961s-5.38-5.9-6.568-5.555l-3.983-7.337c1.328,1.956,1.782,2.131,3.074,4.053-7.476-14.359-9.677-7.861-20.438-25.748-3.494-6.393-5.275-11.18-2.376-7.162L129.615,790.3c-2.2-4.157-.978-3.494,1.293.559-4.158-6.987-7.791-14.464-11.7-21.661h.21c-2.341-2.795-6.5-9.643-8.629-13-1.956-6.009,1.782,2.655,1.642.943-2.2-3.983-4.542-7.966-6.6-12.018-.454-2.865.629-1.747,2.236,1.188a93.383,93.383,0,0,1,5.765,11.983,24.455,24.455,0,0,0-4.3-13.241,96.459,96.459,0,0,1-9.049-23.128c1.607,3.948,3.494,7.826,5.206,11.739a67.15,67.15,0,0,0-3.074-13.8c-1.4-5.171-3.214-11.005-4.716-18.062.245,3.494,5.275,28.788-.559,15.2a88.95,88.95,0,0,0-6.009-16.595c1.607-.594-.908-7.966-3.494-17.468h2.341A83.017,83.017,0,0,0,86.678,674a46.331,46.331,0,0,1-2.9-5.8c-2.446-11.494-1.328-14.219-.314-17.224-2.935-18.482-.454,13.311-4.751-8.49-.489-3.913-1.013-7.477-1.642-10.935s-.943-6.987-1.537-10.481c-1.153-6.987-2.83-14.219-4.053-23.547,0-11.005,1.5,1.817,1.852-2.166l-2.515-9.573c0-2.376.454-1.642.769-1.258-1.118-8.14-2.306-.559-3.284-13.451-1.223-1.712-.7-8.42.245-16.595A118.053,118.053,0,0,0,69.7,528.519c.908-3.878,1.223,1.991,2.166.839l-.21-37c1.083-5.031,2.2-10.062,3.494-14.988-3.494,10.83-3.039-3.494-2.411-16.56-1.5,3.843-2.795,6.987-3.494,9.328.8-6.778,1.572-13.59,2.83-20.3.908-2.341,1.188,0,1.363,3.319l.314-3.773c2.446-6.987,2.865-2.935,2.9,2.411l-2.97,6.987c.419,5.206,1.083,10.1,2.55,9.293a55.9,55.9,0,0,1,.594-6.6c0,1.328.28,2.236.629,1.677A36.859,36.859,0,0,0,77.839,457l3.494-3.948-.734-1.293,3.738-12.647c1.153-4.192,2.83-8.315,4.192-12.472l1.852-13.975c.838-4.612,1.642-9.363,2.655-14.429l1.642-7.9c.629-2.725,1.467-5.485,2.341-8.455q2.688-9.706,6.324-19.11c-1.432,7.581,2.061,2.655,3.878,3.878a49.365,49.365,0,0,0-6.568,15.267c-.978,3.214-2.131,6.6-3.179,10.2s-2.1,7.267-3.494,10.9c2.83-7.581,3.214-5.555,2.9-3.494,2.1-9.014,5.136-17.713,7.791-26.587.7.629,1.537-.594,2.62-2.795s2.655-5.275,4.472-8.385c-2.725,1.747-1.153-3.179,1.572-9.887l2.236-5.31,2.62-5.38a91.844,91.844,0,0,0,4.367-9.608c1.363,0,1.188,2.9-5.31,14.953,9.293-12.193,5-19.46,14.569-31.443a19.565,19.565,0,0,0-2.865,5.834,112.219,112.219,0,0,1,7.616-13.975c2.795-4.367,5.31-7.162,4.472-5l-1.782,2.83c3.109-4.647,6.987-10.481,10.935-16.8l12.752-18.691c4.088-6.009,8.175-11.354,10.9-15.687a30.919,30.919,0,0,0,4.542-8.455,13.765,13.765,0,0,1,.489,5.939c5.939-12.193,12.123-24.456,19.18-36.509-.559,4.3,13.066-1.188,1.4,13.171,1.956-1.817,4.123-3.808,6.708-6.428s5.45-6.009,9.223-10.1c-2.865,2.166-9.084,3.494-5.695,0,11.913-7.3,7.791-5.59,21.8-15.058-4.472,3.144-2.585-3.773,4.018-9.328-.629,1.328,3.109,2.515,1.013,4.891l6.813-8.49c2.271-2.795,4.716-5.45,6.987-8.175-3.773,3.843,1.328,3.179,5.765,1.118-1.118.384,2.515-2.446,6.987-5.869s9.992-6.987,12.158-8.734l-7.686,4.856a97.088,97.088,0,0,0,18.2-15.756c2.131-2.2,4.227-4.4,6.987-6.987a63.584,63.584,0,0,1,11.7-8.175c-2.131,2.166-3.494,7.861,6.987,2.236a149.62,149.62,0,0,1,12.158-13.416,109.944,109.944,0,0,1,23.757-17.783l4.262-.664c4.856-2.655,9.642-5.415,14.673-7.756L345.7,114.03c-4.3,3.074-8.455,6.708-12.507,9.817s-7.756,6.009-10.865,8.385c8.385-3.494,2.865,0,14.743-6.184,4.716-1.188-5.765,4.786-9.223,6.638,9.363-4.542,18.621-9.188,28.264-13.066-1.118-.769,4.088-3.773,9.328-6.743s10.8-5.38,9.887-6.079c-10.481,4.682-20.228,10.481-30.22,15.722-1.118-.769,2.62-4.3,9.293-8.734a105.061,105.061,0,0,1,11.948-6.987c4.612-2.236,9.677-4.437,14.953-6.393,5.59-1.223-2.481,5.485-1.747,6.009a66.377,66.377,0,0,1,10.726-5.136,75.292,75.292,0,0,1,10.691-3.494l-8.525,4.192a83.846,83.846,0,0,0,15.407-6.219,90.593,90.593,0,0,1,27.39-6.568c3.494,0,6.114-.454,6.393-1.223-8.734-.734-12.507-8.385-7.442-11.6l15.162-1.956a107.4,107.4,0,0,1,10.8-.943,47.923,47.923,0,0,1,7.546,0c8.769.559-11.7,6.987-4.227,7.651A22.568,22.568,0,0,1,470,78.255c5.415-.419-1.852,2.341,9.643,0,1.572-2.655,23.722-2.83,5.206-2.725a90.243,90.243,0,0,1,12.018-1.537l13.59-.978c-2.2-.629.7-2.166,5.625-3.738a83.852,83.852,0,0,1,17.748-3.738c-.664.629,1.991,1.363,3.249,1.677h16.106c4.856,0,9.363.489,13.975.734s8.874.454,13.521.838,9.573.908,15.093,1.328c1.991.664,12.542,2.306,7.9,2.9a74.519,74.519,0,0,1,12.927.314c12.787,3.7-15.058-1.572-5.415,2.131.978-1.153,17.678,0,27.321,1.188A31.058,31.058,0,0,0,625.3,73.574c-6.428-.559-13.73-.839-18.586-1.013,0-1.467,4.472-2.446,11.739-2.83,3.494,0,8-.349,12.892,0s10.481.873,16.176,1.537c9.223,1.188,11.04,2.446,11.04,2.865s-1.887.664-.28.8a184.6,184.6,0,0,0,19.39,3.913c4.786.908,8.35,1.328,11.739,1.712a94.784,94.784,0,0,1,10.481,1.712A102.575,102.575,0,0,1,715.5,87.828c10.271,5.45-.769,3.494,1.223,5.765a159.831,159.831,0,0,1-17.469-6.149c-4.856-1.782-9.153-3.494-13.975-4.821l11.983,3.948A118.017,118.017,0,0,1,677.6,81.539a108.76,108.76,0,0,0,12.682,4.542l10.062,3.04L711.8,93.068c3.948,1.4,8.07,2.69,12.123,4.227l11.983,4.856a205.554,205.554,0,0,1,20.962,9.747c4.542,1.4,12.3,4.192,9.083,1.887l-7.721-3.249c-6.5-4.577,15.407,4.682,5.939-.384,5.485,1.747,11.04,4.157,17.224,6.708,3.04,1.328,6.219,2.76,9.5,4.4a103.348,103.348,0,0,1,9.852,5.9l1.572,3.494a49.643,49.643,0,0,0-12.752-8,93.5,93.5,0,0,1,13.311,8.49c2.55,1.782,5.205,3.494,7.651,4.856a21.869,21.869,0,0,0,6.533,2.97c-2.9-2.411-5.73-4.961-8.8-7.2,5.31,2.341,11.04,5.31,17.154,8.42,3,1.607,6.149,3.179,9.118,5.1a81.616,81.616,0,0,1,8.7,5.974c-4.122-5.485-2.795-1.747-9.782-9.643,5.765,7.337-30.989-19.914-20.683-9.538a61.415,61.415,0,0,0-11.7-9.084c-4.157-2.69-8.664-5.59-14.254-9.712,0,.8,3.7,3.494-6.987-2.411a20.574,20.574,0,0,1-2.62-.664l-.7-.419.524.384h.21a27,27,0,0,1,5.066,3.843,120.321,120.321,0,0,1-14.6-5.695c-5.9-2.341-11.809-4.786-14.918-5.73-6.359-3.249,3.039.489-.175-1.817-3.109-.978-6.219-1.887-9.4-2.62-.279-1.782-16.7-9.4-.664-4.053l-13.975-5.66a151.065,151.065,0,0,0-27.181-9.817c-6.987-2.306-17.922-3.284-11.6-2.76-3.843-.908-7.721-1.887-11.6-2.725l-11.739-2.236V70.5c-11.389-3-23.512-4.157-35.845-6.114-12.473-1.223-25.189-3.179-38.43-5.345L579.5,58.656c-4.682,0-10.027,0-16.665-.524L560.28,56.7H540.611a56.772,56.772,0,0,0-15.267.943,52.405,52.405,0,0,0-12.752-.7c-2.725,0-5.695.245-8.8.454s-6.324.769-9.608,1.223c-6.568.978-13.381,1.782-19.6,3.039s-11.844,2.306-16.315,2.935l-.314,1.852-4.542.8-4.472,1.083-9.119,2.306-9.608,2.62c-3.284.978-6.708,2.2-10.481,3.494l1.328,1.258C414.943,80.491,406.7,82.238,397.72,85L383.745,89.12c-4.821,1.572-9.677,3.494-14.5,5.38a35.252,35.252,0,0,1,9.677-3.913,124.861,124.861,0,0,0-18.447,5.974c-5.939,2.585-11.669,5.66-17.468,8.629s-11.11,6.289-16.525,9.188-10.761,5.45-15.9,7.791a60.542,60.542,0,0,1-11.6,6.6,8.248,8.248,0,0,0,1.153-.769l-1.991,1.153a52.126,52.126,0,0,0-6.987,3.494c2.2-.943,4.227-1.922,6.009-2.725-3.738,2.2-9.084,6.009-14.289,9.782h-3.249l-1.223.838c-5.695,2.9-3.843,3.494-.314,2.655a62.127,62.127,0,0,0-6.393,5.625,24.456,24.456,0,0,0-9.677,5.765,66.464,66.464,0,0,1-5.38,3.948,19.25,19.25,0,0,1-5.415,2.725A138.726,138.726,0,0,1,237.6,173.423c-5.73,5.555-11.215,11.18-11.529,13.416-.419,0-1.956.943.629-1.328a87.061,87.061,0,0,0-15.058,13.975l-3.7.559-4.612,6.393-4.367,6.638c-7.442,5.939-10.726,8.28-5.415.314-3.494,4.577-5.974,7.686-7.9,10.132l-4.472,5.9A166.408,166.408,0,0,0,171.05,243.89l-.489-1.607c-4.262,5.45-9.573,15.232-13.066,17.818a140.028,140.028,0,0,0-12.053,14.813c-1.258,1.712-2.62,3.494-3.948,5.415l-3.983,6.079-8.664,13.381c-11.389,19.006-23.128,41.26-32.037,59.113,3.494-2.69,1.083,1.293-1.677,6.359s-5.834,11.389-4.647,12.682c-1.747,1.817-4.3,6.778-2.725.489-.8,2.411-1.642,4.647-2.446,6.743l-2.1,6.044L79.411,401.7a68.372,68.372,0,0,0-4.647,19.774c-1.572,1.991,0-4.577-1.293-2.725a30.255,30.255,0,0,1-2.1,8.315c-1.118,1.852,0-3.074.524-6.289A120.877,120.877,0,0,0,69.1,432.863a36.476,36.476,0,0,0-.279,7.232,7.511,7.511,0,0,0,2.725,5.73,81.436,81.436,0,0,0-3.494,12.193,53.485,53.485,0,0,0-.349,10.656c-1.537,3.494-3.494,9.223-1.607-3.494l-1.956,9.747-1.4,6.987-1.328,7.616c-1.293,10.132-2.306,19.53-1.048,19.984a56.527,56.527,0,0,0-.8,11.983l-.873,9.782c-.175,2.655-.21,4.856-.314,6.987,0,4.367-.245,8.7-.349,16.665l.489-4.4c2.376,6.289.559,13.171,1.223,25.958l-.279-.349a115.29,115.29,0,0,0,0,14.813c.21,3,.419,4.577.629,6.114a50.38,50.38,0,0,1,.594,6.044l.21,5.73.524,8.909,1.432-1.782c1.991,1.118,2.236,7.511,2.48,15.722a143.978,143.978,0,0,0,3.494,26.307v-6.149a69.874,69.874,0,0,1,1.642,17.468,86.155,86.155,0,0,0,.978,17.853c.245,2.026-1.432-2.935-2.306-5.625,4.472,24.036,2.935,2.481,8.35,19.739,0,3.494-4.227-3.249-.769,8.525a165.916,165.916,0,0,0,8.315,20.508c2.236,4.577,4.577,9.5,6.568,14.254q1.537,3.494,2.725,6.987c.873,2.236,1.677,4.367,2.271,6.393-.664-3.7-1.328-7.372,2.76,0,5.31,11.6,11.809,32.98,20.124,41.714.594,1.537.7,2.2.524,2.376,2.865,4.053,6.987,10.97,11.285,17.014a117.95,117.95,0,0,0,10.865,13.765c0,2.76,2.446,6.987,5.9,12.123a151.79,151.79,0,0,0,12.752,16.106c4.681,5.275,9.014,10.481,12.263,14.219s4.961,6.5,3.913,7.337c3.494,3.773,6.6,7.651,10.1,11.285l10.481,10.83-.943-.175a126.637,126.637,0,0,0,15.442,14.534,84.46,84.46,0,0,0,9.712,6.778c3.144,3.214.349,1.433,0,1.4A217.1,217.1,0,0,0,243.684,946.4a179.466,179.466,0,0,0,21.766,13.625l1.013,2.83c5.485,3.144,32.247,25.434,57.995,36.334a8.988,8.988,0,0,1-3.074-.7c14.254,6.393,30.57,15.477,45.418,22.08s27.949,11.145,34.308,9.992c6.6,1.852,13.416,2.935,20.089,4.4-25.329-7.721,4.542-1.572-5.625-5.555a104.33,104.33,0,0,1,14.848,5.1c3.494,1.432,4.3,2.376-1.922.908l-1.852-.873c-5.485,2.341,31.688,8.874,30.6,10.481a586.97,586.97,0,0,0,76.861,9.782l19.006.839h18.831c3.144,0,6.254,0,9.363-.175l9.328-.629c6.184-.489,12.368-.629,18.447-1.467-1.956-.629-3.913-1.153-5.869-1.922,5.66-.489,11.32-1.293,16.944-1.887,4.542,0,6.254,1.188-5.869,2.655a43.037,43.037,0,0,0,12.577-1.747,26.652,26.652,0,0,0,7.791-2.9c23.687-3.144-8.734,4.612-1.5,3.494l9.782-1.956h-2.271c3.913-1.223,5.974-2.131,8.874-3.074,1.432-.454,3.109-.873,5.31-1.432s4.891-1.258,8.455-2.061c9.153-1.572,5,.454,8.594-.245a25.862,25.862,0,0,0,5.485-1.223c6.987-1.712,13.975-3.738,20.962-5.59l-8.839.419c8.909-3.494,19.425-5.555,9.258-4.926,7.442-.454,26.692-6.323,44.614-13.73,4.542-1.677,8.839-3.808,13-5.66l11.529-5.24c6.987-3.319,11.983-6.009,13.975-6.743,2.83-1.852,5.66-3.494,8.56-5.345s5.695-3.494,8.7-5.45c5.974-3.494,12.472-6.987,19.32-11.564-3.494,1.817-6.987,1.188,5.066-6.114-.943,3.249,4.926.454,12.053-4.192a175.412,175.412,0,0,1,21.381-12.822c-4.682,2.271,3.109-4.053,10.271-9.992s13.171-12.088,6.184-8c9.118-7.407,1.677.873,9.118-4.157,19.844-19.739,45.627-41.924,66.38-69.873-.175-.8-4.472,3.179-.629-3.214,4.682-4.088,8.874-8.56,13.311-12.927a29.138,29.138,0,0,0,2.9-6.987,15.616,15.616,0,0,1,2.026-3.773,42.5,42.5,0,0,1,4.507-5.73c-1.4,1.223-3.494,3-1.153-.943a399.511,399.511,0,0,0,47.584-91.36,852.456,852.456,0,0,0,29.766-99.814c-2.8,9.049-1.817,2.865-.629-4.157-1.083,4.507-1.467-.349-2.446.419,1.956-9.363,4.123-18.8,5.8-28.3a69.872,69.872,0,0,1,0-17.853,88.759,88.759,0,0,0,.314-10.271,14.5,14.5,0,0,0-.838-5.834l.175,9.118c-1.188-6.114-2.655-1.922-4.437,3.494s-4.088,11.983-5.695,10.97a44.337,44.337,0,0,1-.245,11.494c-.664,4.192-1.817,8.769-2.865,13.59s-1.991,9.922-3.074,15.128a81.955,81.955,0,0,0-1.537,16.176c-1.5,4.612-.314-4.227-1.537-1.852.594,5.73-.8,12.3-4.157,24.211v-1.467l-1.363,6.149c-.489,1.956-1.083,3.843-1.572,5.695q-1.625,5.241-3.04,10.481c-1.852,6.638-4.122,12.577-6.428,18.621s-4.542,12.228-7.616,18.971-6.079,14.394-10.481,23.093l2.725-1.956a113.557,113.557,0,0,1-6.987,12.333c-1.677,9.817,9.817-21.381,8.734-12.263a66.375,66.375,0,0,0-7.162,12.193c-2.76,5.52-6.254,11.879-9.5,18.272a197.44,197.44,0,0,1-9.992,17.224,33.085,33.085,0,0,1-7.581,9.433c-6.987,10.8,3.494-2.166-3.319,8.664l-2.69,2.306-.664,3.494A37.21,37.21,0,0,1,953,832.294c-1.642,1.5-2.725,2.131-3.179,1.991,1.258-1.572,3.144-4.856,4.367-6.673a156.376,156.376,0,0,0-11.809,16.071,138.677,138.677,0,0,1-8.594,11.7c2.69-3.109,5.45-6.184,8.07-9.328-5.206,6.987-10.726,14.464-16.77,21.766s-12.333,14.673-19.145,21.521l-9.887,10.481-10.132,9.922c-6.5,6.708-13.311,12.647-19.355,18.656l2.446-1.083c-2.341,2.236-4.332,4.157-6.114,5.765s-3.494,2.83-4.856,3.948c-2.83,2.236-5.031,3.773-7.3,5.38s-4.542,3.249-7.791,5.45-7.372,5.1-13.1,9.363l.769-.734a105.9,105.9,0,0,1-17.049,12.542c5.555-4.646-12.333,5.8-4.926,0-2.83,2.1-5.171,3.494-7.162,4.926l-4.646,3.144A43.679,43.679,0,0,0,792.4,980.6c-.873.769-1.467,1.432-2.795,2.655a64.172,64.172,0,0,1-6.987,5.73l-4.437.8c-2.55,1.991-3.878,3.179-6.149,4.716a80.144,80.144,0,0,1-11.913,6.568c10.2-5.835-9.119,1.956,2.2-4.751a180.184,180.184,0,0,0-18.307,7.372c-5.275,2.306-9.887,4.367-13.975,6.323a53.9,53.9,0,0,1-21.94,6.708c-5.9,3.913.349,2.306,7.267,0s14.219-5.415,10.8-3.494c3.179-.629.8,1.048-3.494,3.284a127.666,127.666,0,0,1-15.337,5.8,57.682,57.682,0,0,1-14.743,2.236c-3,.245-6.393.629-10.481,1.363-2.026.384-4.262.838-6.673,1.4s-5.136,1.013-8.07,1.677c2.341-.524,2.446-.8,4.751-1.328a89.452,89.452,0,0,0-13.136,3.109c-2.236.664-4.542,1.293-6.987,1.817a53.576,53.576,0,0,1-7.826.874c-5.66,3.214-13.975,2.376-15.372,5.415l21.591-4.507c-6.079,1.467-11.844,3.494-18.726,5.45a119.309,119.309,0,0,1-25.294,3.7,89.777,89.777,0,0,1,11.7-3.179c-6.079,0-11.459,2.166-17.783,1.747.8-1.328,7.407-2.236,15.442-3.494,4.053-.559,8.42-1.083,12.612-1.782a100.214,100.214,0,0,0,11.285-2.97,97.322,97.322,0,0,0-13.975,2.585c-4.577.838-7.581,1.258-4.437-.629a45.068,45.068,0,0,1-17.084,3.738,103.014,103.014,0,0,0-22.255,2.585l.943-1.747a66.665,66.665,0,0,1-12.507,1.5l8.42-2.341c-13.031,2.1-25.224-.734-37.732-.314,13.136.314,14.6.8,14.184,1.432s-2.76,1.537,2.83,1.991c-32.631,1.642-18.656-4.053-54.711-6.114,4.856.279,18.272,2.411,10.481,2.655-3.494-.489-7.442-.908-11.04-1.677a86.55,86.55,0,0,1-8.909-2.271c-23.862-2.69,3.494,2.166-6.987,1.886-7.861-2.9-11.809-1.013-22.394-2.166l.245-1.677c-3.494-.734-5.974-1.258-8.07-1.607a42.4,42.4,0,0,0-4.786-.839,8.7,8.7,0,0,0-4.053.175c-1.642.524-2.935,1.048-14.883-2.376h10.76c-4.227-.838-8.49-1.467-12.682-2.411,1.013-.419,1.991-.734,3.039-1.188a141.233,141.233,0,0,1-15.791-3.494,129.253,129.253,0,0,1-15.093-5.135c2.655,2.131-2.62,2.306-14.219-1.537-7.476-3.808,4.856.245-11.32-5.834a42.317,42.317,0,0,1,6.533,1.083,40.973,40.973,0,0,1,8.42,3.668c.908-.279,3.983.21,4.891,0-8.14-3.7-20.962-8.035-26.657-10.271,2.2.943,4.821,2.1,6.114,2.83-4.018-1.153-8.035-2.271-12.053-3.494L353,998.767c-3.494-2.2-.279-1.363,2.76-.524-4.647-1.991-8.28-2.516-14.988-5.765,2.341-.384,2.481-1.677,12.3,1.991-7.476-2.655-14.638-5.939-21.94-9.083-1.153-1.188-9.992-6.987-6.987-6.079a201.1,201.1,0,0,0-20.508-10.8,156.823,156.823,0,0,1-22.5-13.974,33.091,33.091,0,0,1-5.66-3.144c-3.284-2.446-6.463-4.891-9.573-7.337L256.75,936.3c-3.109-2.585-6.358-5.136-9.782-7.826s-6.987-5.555-10.935-8.35c-2.2-3.074-4.542-5.939-6.6-9.118-11.354-10.1,8.734,12.577-10.271-4.262-6.778-5.939-7.651-7.442-7.267-8.14s1.817-.384,0-2.9c-3.494-2.795-8.385-6.568-13.66-11.319A104.808,104.808,0,0,1,183.1,866.6C187.191,870.619,189.532,874.078,192.99,877.816Zm-95.552-160.5c.734,1.677,1.956,4.157,2.97,6.533a18.132,18.132,0,0,1,2.1,6.079,12.4,12.4,0,0,1-3.284-5.206C98.557,722.732,98.172,720.357,97.439,717.317ZM82,434.54a45.418,45.418,0,0,1-3.109,11.389A72.738,72.738,0,0,1,82,434.54ZM717.006,85.592h-.419C708.866,82.238,711.591,83.426,717.006,85.592Zm16.141,6.673c1.712.419,1.677,0,1.083-.349a44.719,44.719,0,0,1-9.048-3.179,24,24,0,0,0,7.966,3.529ZM673.335,1041.32l-3.494.314C677.283,1039.469,675.292,1040.377,673.335,1041.32Z" transform="translate(-58.03 -56.546)"/><path class="b" d="M64.368,174a2.341,2.341,0,0,1-1.188,1.363C63.215,176.83,63.529,176.935,64.368,174Z" transform="translate(-45.188 236.345)"/><path class="b" d="M121.78,313.53l.454.349a1.5,1.5,0,0,0,.629,0Z" transform="translate(100.941 584.286)"/><path class="b" d="M180.838,63.44a37.137,37.137,0,0,1-6.778.314C174.06,64.209,175.7,64.278,180.838,63.44Z" transform="translate(231.311 -39.355)"/><path class="b" d="M282.372,81.62c-3.179-1.956-6.568-3.494-9.852-5.38a47.758,47.758,0,0,1,8.385,5.625C280.9,81.411,279.4,79.769,282.372,81.62Z" transform="translate(476.837 -7.436)"/><path class="b" d="M297.089,98.757c1.293.978,2.48,2.341,3.738,3.284l.245-.873C296.076,96.486,292.163,93.656,297.089,98.757Z" transform="translate(532.448 41.947)"/><path class="b" d="M277,80.73c0,.839,1.5,2.1,3.878,3.494q1.782,1.153,4.088,2.515l4.647,3.074-1.118-.8c1.5,0,.489-1.293-1.817-2.935S280.494,82.721,277,80.73Z" transform="translate(488.009 3.76)"/><path class="b" d="M281,83.65c1.991,1.328,4.018,2.725,5.869,4.157C287.987,87.668,284.494,85.956,281,83.65Z" transform="translate(497.984 11.042)"/><path class="b" d="M261.968,71.147c3.214,1.852,2.83-.7,4.542.7,2.271,0-3.494-2.026-7.686-3.144-2.026-.594-3.494-.838-3.494-.559a38.434,38.434,0,0,0,6.638,3Z" transform="translate(433.971 -27.917)"/><path class="b" d="M281.865,85.763l-1.363-2.97-4.4-1.153Z" transform="translate(485.765 6.029)"/><path class="b" d="M262.86,73.78l10.76,6.079c0-.349,1.432.21,3.214.978A112.186,112.186,0,0,0,262.86,73.78Z" transform="translate(452.748 -13.571)"/><path class="b" d="M266.86,75.8c3.494,1.887,6.708,3.808,8.769,4.612C273.742,79.4,269.76,77.058,266.86,75.8Z" transform="translate(462.723 -8.534)"/><path class="b" d="M281,85.138l-2.9-2.271L270.66,78.43C274.084,80.666,277.682,82.692,281,85.138Z" transform="translate(472.199 -1.975)"/><path class="b" d="M236.806,62.817,223.46,61c-1.432.349,2.1,1.363,6.987,1.991C233.766,63.1,238.727,63.76,236.806,62.817Z" transform="translate(353.694 -45.44)"/><path class="b" d="M242.464,67.62a21.485,21.485,0,0,1-5.31-2.9l-.943,1.991Z" transform="translate(386.292 -36.164)"/><path class="b" d="M234.124,63.355c-1.467.349-19.32-1.677-2.725,1.118C232.831,64.054,246.037,66.185,234.124,63.355Z" transform="translate(356.796 -40.528)"/><path class="b" d="M169.92,65.892l3.319-.8L172.016,61.7Z" transform="translate(220.987 -43.694)"/><path class="b" d="M126.033,92.427c13.59-7.651,1.922-3.913,14.429-10.481,2.655-2.69-10.236,5.415-7.442,2.795C125.544,90.506,121.107,92.811,126.033,92.427Z" transform="translate(106.366 5.409)"/><path class="b" d="M126.55,84.534c1.223-.943,2.48-1.956,3.808-3.074A44.9,44.9,0,0,0,126.55,84.534Z" transform="translate(112.836 5.581)"/><path class="b" d="M342.98,215.691c.594-3.494.8-6.987,1.153-10.481l-1.363,6.638C342.91,213.21,342.91,214.433,342.98,215.691Z" transform="translate(652.017 314.172)"/><path class="b" d="M342.27,208.664l2.306-2.411L342.689,200A42.874,42.874,0,0,1,342.27,208.664Z" transform="translate(650.771 301.18)"/><path class="b" d="M68.674,238.114l-.734-.594a30.5,30.5,0,0,0,1.642,8.455Z" transform="translate(-33.318 394.743)"/><path class="b" d="M84.343,274.611,83.12,272.62l.629,4.786Z" transform="translate(4.536 482.271)"/><path class="b" d="M111.931,305.331c-3.494-3.179-7.407-6.987-10.481-10.271C108.507,302.117,111.093,307.882,111.931,305.331Z" transform="translate(50.245 538.228)"/></g></g></svg>