<svg xmlns="http://www.w3.org/2000/svg" width="76.759" height="129.149" viewBox="0 0 76.759 129.149"><defs><style>.a{fill:#fff;}</style></defs><path class="a" d="M283.268,21.378c.049.11-.018.157-.086.217s-.184.168-.27.246a.277.277,0,0,1-.117.033.115.115,0,0,1-.024-.027c-.006-.012,0-.018.013-.022a.174.174,0,0,1,.07-.025c.116,0,.048-.131.121-.155a.279.279,0,0,0,0-.039c-.042.031-.088.061-.127.1-.1.088-.184.178-.288.268-.009.01,0,.037,0,.057s.061.012.075,0,.018-.067.04-.082.055,0,.083,0v.068c-.086.086-.183.164-.264.25s-.125.2-.206.227a1.661,1.661,0,0,0-.275.217.2.2,0,0,1-.048.018.335.335,0,0,1,.022-.061c.009-.016.03-.025.041-.039a.394.394,0,0,0,.02-.049H282a1.788,1.788,0,0,0-.165.153c-.128.141.129.016.068.113-.013.022-.026.045-.04.067-.048.08-.173.063-.194.178,0,0-.05.014-.061,0a.076.076,0,0,1-.013-.067c.011-.023.042-.037.059-.059a.143.143,0,0,0,0-.059h-.044l-.349.325c-.011,0-.011.033-.016.049a.1.1,0,0,0,.048-.01c.062-.057.121-.117.183-.17a.061.061,0,0,1,.059.016.071.071,0,0,1,0,.067,4.524,4.524,0,0,0-.55.575,2.16,2.16,0,0,1-.385.366c-.13.113-.195.286-.338.391-.075.055-.172.111-.183.231a1.851,1.851,0,0,0-.481.587c-.037.07-.136.108-.184.178s-.044.143-.149.166c-.053.012-.09.115-.145.164a.214.214,0,0,0-.07.141A.2.2,0,0,1,279,26.1c-.079.057-.073.2-.2.2-.09.184-.272.293-.347.5-.044.123-.173.221-.195.37a.168.168,0,0,1-.061.086c-.09.068-.143.133-.051.233.015.016-.022.1-.053.141a2.2,2.2,0,0,0-.314.6c-.062.184-.174.344-.231.528-.031.106-.147.2-.154.3s-.1.2-.125.323a2.539,2.539,0,0,1-.108.35c-.039.125-.075.252-.112.378.094.139-.088.213-.1.327a.7.7,0,0,1,0,.139c-.015.049-.075.094-.075.135a4.574,4.574,0,0,0-.086.657.471.471,0,0,1-.156.411c-.055.049-.042.106-.029.17a.848.848,0,0,1-.026.391c-.017.055-.027.059-.061.023a.144.144,0,0,0-.042-.02c0,.014-.015.037-.011.041.1.07.046.178.038.274a1.489,1.489,0,0,1-.029.151c-.073-.023-.09-.08-.085-.16a1.375,1.375,0,0,0-.015-.151c-.009-.172-.015-.344-.024-.515,0-.014-.022-.025-.035-.031s-.026.014-.029.025a1.38,1.38,0,0,0-.053.745.281.281,0,0,1-.013.135.941.941,0,0,0-.026.348c0,.121,0,.243.009.364a.855.855,0,0,0,.022.278c.042.092-.037.225.073.286a1.928,1.928,0,0,0-.031.3,1.527,1.527,0,0,0,.072.338.172.172,0,0,0,.184.143c.042,0,.108.037.114.07a2.631,2.631,0,0,1,.033.432c0,.067-.048.135-.053.2s.048.131.055.213a3.1,3.1,0,0,0,.073.442,6.518,6.518,0,0,1,.183.657,3.391,3.391,0,0,0,.2.681,1.574,1.574,0,0,1,.13.372c.018.137.139.221.117.374,0,.027.029.059.048.084a.434.434,0,0,1,.081.178,1.76,1.76,0,0,0,.161.391c.064.123.183.227.205.362s.127.155.13.262.11.164.161.25c.013.022.044.039.046.061,0,.149.116.221.184.317s.093.252.2.34c.075.065.127.16.2.233a2.62,2.62,0,0,1,.218.2,3.641,3.641,0,0,1,.5.689c.112.243.367.36.527.558a4.691,4.691,0,0,0,.565.63c.183.156.367.335.563.491.055.045.119.08.172.125.1.084.184.176.288.26.022.018.062.014.092.023a.661.661,0,0,1,.106.047c.128.076.253.157.378.235a3.38,3.38,0,0,0,.868.4,6.246,6.246,0,0,1,.7.325c.108.045.25.057.319.139.138.162.35.174.508.3a2.276,2.276,0,0,0,.466.211,3.981,3.981,0,0,0,.473.2c.293.11.589.213.879.331a1.485,1.485,0,0,0,.461.125,2.49,2.49,0,0,1,.376.082.049.049,0,0,1,.027.041c0,.012-.026.035-.039.035a.594.594,0,0,1-.381-.072c-.053-.041-.074.023-.108.045a.673.673,0,0,0,.563.068.068.068,0,0,1,.052,0,2.726,2.726,0,0,0,.559.135.535.535,0,0,0,.314.012.4.4,0,0,1,.152,0c.028,0,.074.025.074.043,0,.051,0,.082.057.074a1.374,1.374,0,0,1,.156,0l1.284-.016a.116.116,0,0,1,.081.023c.066.1.066.106.108.094.16-.043.308.031.462,0a3.162,3.162,0,0,1,.56-.023.227.227,0,0,0,.051,0c.376-.119.758-.068,1.14-.164a5.008,5.008,0,0,1,.593-.1,5.124,5.124,0,0,0,.607-.137,3.379,3.379,0,0,0,.55-.25c.02,0,.031-.041.046-.063a.157.157,0,0,0-.064-.014c-.031,0-.064.037-.092.033s-.062-.047-.057-.061c.044-.1.119-.035.184-.049h.046c.06.133.159.031.233,0a2.284,2.284,0,0,0,.319-.153.089.089,0,0,1,.015-.049c-.1.061-.092-.108-.183-.068a2.555,2.555,0,0,0-.481.133.259.259,0,0,1-.117.037.873.873,0,0,1-.139-.018c.02-.08.079-.051.127-.061s.077-.035.116-.043c.13-.031.226-.2.367-.141.119-.123.279-.11.417-.176s.281-.106.42-.16a.227.227,0,0,0,.09-.041.641.641,0,0,1,.338-.2.913.913,0,0,0,.244-.139c.066-.039.183-.067.193-.117.057-.2.123-.031.183-.039a.16.16,0,0,0,.044-.023,1.585,1.585,0,0,1,.611-.313h.026l.127-.141a.13.13,0,0,0-.16.029c-.02.022-.062.02-.093.033-.123.053-.262.047-.367.18-.039.051-.134.059-.205.08-.017,0-.052-.012-.052-.022s0-.086.022-.09c.184-.057.3-.262.494-.27.013,0,.028-.023.04-.035a2.321,2.321,0,0,1,.655-.338.957.957,0,0,0,.446-.264c.031-.039.093-.057.127-.082.169-.131.384-.158.536-.323a.16.16,0,0,1,.138-.043c.057.018.125-.1.154-.012s-.085.014-.116.086-.117.117-.184.174a.331.331,0,0,1-.183.1.719.719,0,0,0-.343.247c-.011.01-.009.031-.013.047l.048-.012c.039-.02.073-.045.112-.063a1.044,1.044,0,0,0,.117-.039c.027-.016.042-.065.066-.072a1.354,1.354,0,0,0,.437-.293c.141-.117.3-.209.453-.319.024-.018.029-.067.042-.1-.066-.012-.1-.023-.022-.1a.489.489,0,0,1,.248-.137.734.734,0,0,0,.516-.45c.018-.039.048-.1.07-.106.211-.018.249-.278.422-.344a1.184,1.184,0,0,1,.51-.458c0-.016-.017-.041-.011-.047.049-.055.139-.1.148-.158.016-.1.1-.068.138-.119s.1-.1.137-.164a1.174,1.174,0,0,1,.277-.36c.084-.063.143-.176.262-.174,0-.129.132-.178.184-.29a4.051,4.051,0,0,1,.244-.46,3.521,3.521,0,0,0,.218-.473l.226-.558c0-.016.03-.039.026-.045-.05-.076,0-.125.057-.172s.033-.137.066-.2.136-.082.05-.143.064-.131,0-.182-.039-.088,0-.155.068-.2.112-.293a6.577,6.577,0,0,0,.183-.663,1.573,1.573,0,0,1,.229-.556.316.316,0,0,0,.022-.047c-.024,0-.053-.018-.07,0-.057.037-.139.072-.16.127-.057.147-.088.305-.132.458s-.081.27-.118.4c-.02.07-.106.074-.123.157s-.081.157-.1.239a1.19,1.19,0,0,0,0,.229.175.175,0,0,1-.031.072,6.486,6.486,0,0,0-.336.62,2.452,2.452,0,0,0-.224.466c-.044.215-.226.284-.314.434-.042.07-.119.123-.136.2a.248.248,0,0,1-.172.2.978.978,0,0,1,.049-.231.679.679,0,0,1,.13-.26.8.8,0,0,0,.184-.311.854.854,0,0,1,.072-.223c.029-.047.114-.145,0-.2a.167.167,0,0,1,.035-.084c.068-.053.183-.162.163-.2-.057-.11.049-.2.055-.293a2.814,2.814,0,0,1,.059-.346.6.6,0,0,1,.04-.1,6.372,6.372,0,0,0,.3-.957q0-.027,0-.055h-.046c-.061.059-.151.1-.092.213.022.047,0,.11-.081.082a.462.462,0,0,1-.165-.082c-.015-.014.031-.09.044-.141.026-.1.044-.209.073-.311.013-.039.048-.1.07-.106.137-.014.117-.088.116-.2s-.024-.2.079-.28c.013,0-.009-.059,0-.084a.451.451,0,0,0,.018-.213.936.936,0,0,1,.026-.247c.027-.16.062-.319.088-.477.013-.07,0-.143.013-.213a1.581,1.581,0,0,0,.031-.166q0-.1-.013-.2c.13.018.079-.09.088-.141a4.891,4.891,0,0,0,.031-.82c0-.3-.033-.587-.061-.871,0-.031-.024-.063-.022-.094a.918.918,0,0,1,.029-.246c.037-.1-.075-.129-.053-.217a.174.174,0,0,0-.011-.139.155.155,0,0,0-.107-.08.126.126,0,0,1-.1-.121.532.532,0,0,0-.055-.133.756.756,0,0,0-.154-.143c-.035.078.049.088.062.139a.268.268,0,0,1,0,.1.408.408,0,0,0,.088.282.47.47,0,0,1,.1.352.454.454,0,0,0,.022.147c.029.137.079.278-.088.391-.05.031-.013.082-.02.106-.042.117.033.2.029.311a2.479,2.479,0,0,0,0,.616c.02.08.074.174-.046.25-.018.012-.017.07-.013.106a1.3,1.3,0,0,1-.011.391c-.183.149.011.36-.128.513.158.084-.024.158-.031.239,0,.039-.044.084-.037.115a1.667,1.667,0,0,1-.011.632c-.011.074.029.059.068.065s.022.023.033.037-.029.035-.044.037c-.077,0-.2-.039-.125.131a.25.25,0,0,1-.044.061c-.02.016-.066.018-.072.033-.029.094-.044.2-.073.286a1.738,1.738,0,0,1-.163.5,2.383,2.383,0,0,0-.169.323c-.057.117-.106.237-.16.356l-.16.358c-.053.119-.081.276-.167.348-.128.108-.086.278-.207.37.011.162-.094.254-.184.374a3.568,3.568,0,0,0-.3.434,4.331,4.331,0,0,0-.248.46c-.024.057-.073.147-.152.055a.093.093,0,0,0-.066.029,1.091,1.091,0,0,0-.1.209c-.062.2-.233.3-.367.43-.011.012-.042,0-.064,0s-.068-.016-.082,0a1.1,1.1,0,0,1-.141.125,13.236,13.236,0,0,0,1.846-11.458v-.018a.2.2,0,0,0-.033-.115l-.018-.023c-.09-.286-.183-.567-.3-.847.088-.068.1-.115.044-.176a.942.942,0,0,1-.167-.3.464.464,0,0,1,.026-.088c.024.016.055.025.07.049s0,.063,0,.074c.13.108.165.29.266.419a.22.22,0,0,1,.068.158c0,.051.084.1.081.147,0,.1.125.02.1.1-.029.113.072.088.1.129s.017.131.03.2a.066.066,0,0,0,.046.057.458.458,0,0,0,.114-.012l-.061-.061c-.013-.012-.038-.029-.035-.039.05-.156-.108-.219-.11-.352,0-.049-.123-.074-.026-.145.063-.045.077.043.11.072s.062.053.059.078c-.017.135.1.17.147.256,0,.012.029.012.044.016s0-.039,0-.047c-.086-.08-.092-.207-.138-.311a.524.524,0,0,0-.042-.088c-.059-.08-.139-.141-.108-.276,0-.041-.07-.1-.119-.139a.291.291,0,0,1-.123-.25.463.463,0,0,1,.022-.065l.057.043.092.076a.92.92,0,0,0,0-.147c0-.023-.033-.037-.046-.061a.183.183,0,0,1-.017-.067.186.186,0,0,1,.092-.035.24.24,0,0,1,.134.043c.031.023.031.082.059.112s.088.039.119.072a.243.243,0,0,1,.068.127.086.086,0,0,0,.07.084c.04.014.094.061.092.1,0,.078.051.1.077.155a.4.4,0,0,1,.044.113c.011.065-.029.07-.075.063,0,.022,0,.055.017.065s.1.023.1.047c.013.067,0,.121.092.049a.147.147,0,0,0,.04.018c.079,0,0,.137.1.143s.079.09.084.162c0,.012.022.02.035.031a.494.494,0,0,0,.031-.057c.013-.037.044-.09.031-.112-.1-.178-.05-.434-.235-.563a.05.05,0,0,1,0-.045.109.109,0,0,1,.062-.041c.057,0,.128-.022.117.084,0,.023.031.049.048.072.011-.029.026-.059.035-.088s.026-.074.015-.088a1.124,1.124,0,0,1-.231-.458c0-.022-.057-.023-.086-.033s-.048.027-.053.063a.917.917,0,0,1-.026.092.63.63,0,0,1-.055-.043.93.93,0,0,1-.167-.38c-.022-.061.031-.082.062-.1s.055,0,.081.014.022.025.033.039.059.08.1.02c.064-.094-.037-.031-.053-.053s-.031-.027-.029-.039c.028-.115-.094-.143-.1-.221a.486.486,0,0,0-.128-.237c-.026-.035-.072-.067-.07-.1,0-.149-.13-.2-.184-.293h-.042a.11.11,0,0,0,.009.049c.018.027.05.049.061.08a.133.133,0,0,1-.009.088h-.063c-.071-.076-.125-.172-.238-.205-.037,0-.057-.076-.077-.121a.634.634,0,0,0-.294-.34,2.208,2.208,0,0,1-.244-.2v-.045a.117.117,0,0,0,.044.014c.027,0,.068.014.082,0,.051-.051,0-.084-.029-.1-.077-.055-.169-.086-.238-.147a1.436,1.436,0,0,1-.184-.231c-.016-.025-.015-.076-.037-.088-.068-.031-.112-.065-.086-.162.013-.051-.1-.1-.121-.067-.037.088-.053.1-.1.027-.013-.018-.04-.022-.061-.031a.238.238,0,0,1,.02.07.092.092,0,0,1-.024.067.059.059,0,0,1-.062,0c-.1-.092-.149-.246-.3-.28,0,0-.018-.037-.011-.045s.037-.047.055-.049.079.035.1.022a.127.127,0,0,1,.108-.022.135.135,0,0,1,.087.071,1.174,1.174,0,0,0,.1.119h.044a.23.23,0,0,0,0-.049c-.013-.035-.027-.07-.042-.106h.068c-.018-.022-.033-.057-.057-.065a1.133,1.133,0,0,1-.347-.2c-.126-.11-.241-.243-.442-.217a.456.456,0,0,1-.184-.041c-.018,0-.028-.035-.042-.053a.514.514,0,0,0,.059-.023c.029-.018.107.035.086-.035a.272.272,0,0,1,0-.174.508.508,0,0,0,.009-.2.042.042,0,0,1-.016,0c-.044-.033-.086-.067-.127-.1-.011-.01-.013-.029-.018-.045s.055-.035.064-.029a.747.747,0,0,1,.079.092l.017.061c0-.051,0-.039.017-.025a.42.42,0,0,1,.018.068h-.011c.046.053.119.02.114.115s.059.133.145.17a1.264,1.264,0,0,1,.607.452c.048.072.093.164.163.2a.615.615,0,0,1,.264.25,3.517,3.517,0,0,0,.27.243c.141.145.257.317.391.468.106.117.226.221.34.329h.04c.013,0,0-.02,0-.025a1.269,1.269,0,0,1-.11-.139c-.05-.086-.169-.123-.141-.258a3.982,3.982,0,0,0-.312-.358c-.1-.088-.1-.076-.16-.3-.015-.055-.081-.1-.13-.133-.015-.012-.068.031-.083.02-.051-.035-.068-.123-.156-.106-.011-.084-.145-.033-.138-.133s-.13-.023-.141-.11a.5.5,0,0,0-.024-.068.237.237,0,0,1,.061.025c.053.037.073-.025.106-.047a1.089,1.089,0,0,1-.154-.1c-.055-.053-.1-.119-.147-.176-.02-.023-.053-.061-.075-.055-.156.043-.139-.092-.171-.178v-.072c-.138-.02-.171-.168-.277-.229a1.006,1.006,0,0,1-.367-.3c-.018-.025-.066-.061-.073-.055-.138.121-.136-.059-.2-.076a.1.1,0,0,1-.081-.125c0-.014-.039-.043-.053-.037-.055.016-.136.027-.156.068-.044.082.075.012.081.07,0,.023.033.039.037.063a.324.324,0,0,0,.22.27c.046.018.07.088.1.133-.081.055-.084-.043-.123-.067a1.335,1.335,0,0,1-.528-.391.576.576,0,0,0-.242-.119.3.3,0,0,1,.03.039s0,.027-.04-.025c-.009.049-.053.029-.1,0a.4.4,0,0,1,.026-.043h0c-.033-.012-.057,0-.073-.016a.788.788,0,0,0-.106-.092,1.133,1.133,0,0,0-.147-.065c-.017,0-.029-.02-.046-.029.028-.016.061-.047.081-.041.147.043.3.068.446.1a1.539,1.539,0,0,0-.66-.344.378.378,0,0,1-.11-.041,1.674,1.674,0,0,0-.387-.164c-.018,0-.029-.051-.033-.08s.013-.049.02-.072a.225.225,0,0,0-.09.014c-.016.01,0,.086-.047.055a3.622,3.622,0,0,1-.4-.2c-.042-.033-.057-.023-.018-.076a.091.091,0,0,0-.017-.082c-.026-.016-.066,0-.1,0l.011.067v.049c-.1-.02-.227.051-.3-.063h-.073a1.772,1.772,0,0,1-.56-.153c-.094-.055-.184-.1-.286-.155-.139.092-.183-.09-.292-.084h-.026c-.082.023-.116-.045-.17-.076a.717.717,0,0,0-.211-.047c-.064-.012-.02-.039,0-.065s0-.047-.027-.055a.215.215,0,0,1-.075-.059.183.183,0,0,1-.207-.016.077.077,0,0,1-.088,0V20.76l.11.022-.028.025c.106-.07.163-.051.207.016a.836.836,0,0,1,.312.014c.121.022.224.086.345.1.039,0,.068,0,.04-.053-.009-.02-.018-.057-.009-.067.071-.082.04-.113-.04-.113-.15,0-.266-.111-.426-.088s-.24-.147-.4-.129c-.084.01-.093-.094-.022-.164.119-.117.119-.115.3-.1a.089.089,0,0,0,.046-.018.714.714,0,0,0-.1-.059c-.066-.025-.075-.063-.015-.112s.094-.082.13-.076a.252.252,0,0,0,.207-.1.488.488,0,0,1,.171-.129.072.072,0,0,0,.056-.041.082.082,0,0,0,0-.073c-.077-.08-.1-.225-.257-.211-.033,0-.07-.033-.1-.061-.128-.123-.251-.256-.385-.374-.046-.043-.119-.112-.184-.055-.147.123-.262.018-.367-.022-.226-.08-.281-.139-.457-.041s-.246-.106-.385-.025c0,0-.042-.023-.051-.043-.077-.16-.2-.162-.345-.078a.322.322,0,0,1-.119.035.119.119,0,0,1-.122-.046.138.138,0,0,1-.015-.138c.017-.061,0-.084-.048-.09a.4.4,0,0,0-.128,0,2.336,2.336,0,0,1-.864.01.084.084,0,0,1-.048,0c0-.012.017-.031.02-.029a.151.151,0,0,1,.037.018h0a.36.36,0,0,1,.127-.061,1.827,1.827,0,0,0,.5-.031c.075-.023.154.059.224-.035a1.145,1.145,0,0,0-.22-.078.981.981,0,0,0-.192.031c-.319.022-.639.037-.958.063a.63.63,0,0,0-.439.172.149.149,0,0,1-.183.037.085.085,0,0,1-.048,0c0-.012.016-.031.02-.029a.11.11,0,0,1,.031.014c.039-.135.031-.121-.057-.139s-.117.076-.183.023c-.038-.029-.125,0-.183.018a.439.439,0,0,1-.273.037.361.361,0,0,0-.292.037c-.121.115-.2.027-.3.025a.114.114,0,0,0-.068.027.268.268,0,0,1-.261.076c-.116-.039-.183.094-.292.082a.836.836,0,0,0-.27.049c-.1.025-.211.11-.277.08a.124.124,0,0,0-.149.037c-.152.145-.3.309-.519.276-.011,0-.026.025-.042.035-.119.084-.273.1-.38.213h-.062c-.037-.1-.136,0-.161-.031-.108-.1-.129.053-.184.076s-.139.11-.2.108a.98.98,0,0,0-.29.086c-.02,0-.04.027-.06.043.024.012.057.016.07.035a.1.1,0,0,1,.013.086c-.024.037-.066.09-.1.092-.128,0-.211.117-.316.17a.821.821,0,0,0-.328.221.1.1,0,0,1-.092.033c-.127-.039-.183.153-.3.129,0,0-.026.025-.028.041a.922.922,0,0,0,0,.1l.068-.037c.026-.014.059-.094.075,0a.455.455,0,0,0,.053.11.08.08,0,0,1-.009.043l-.042-.018-.04-.023v.061a.077.077,0,0,0,.011.049c-.116-.016-.173.164-.3.121a.311.311,0,0,0-.127,0c-.011,0-.024.025-.035.039a.139.139,0,0,0,.048.029c.046.016.081.043.035.092a2.534,2.534,0,0,1-.246.229c-.064.055-.119.043-.16-.057-.022-.055-.031-.025-.062-.016-.064.023-.149.063-.152-.051s-.05-.112-.121-.039a.247.247,0,0,1-.138.068C283.309,21.241,283.241,21.314,283.268,21.378ZM294.439,45.71a.154.154,0,0,1-.018.039H294.4a.245.245,0,0,1,.018-.039Zm5.239-3.408-.017.057-.064.02c0-.016,0-.039.015-.047A.4.4,0,0,1,299.678,42.3Zm3.081-10.024.015-.039h.028a.24.24,0,0,1-.018.039Zm-.652,4.58v-.115l.063.014a.468.468,0,0,1-.018.082.413.413,0,0,1-.038.02Zm-.083-10.013a.352.352,0,0,1-.04.074.1.1,0,0,0-.046.012l.027-.117Zm-.407.327V27.2l-.037-.012v-.027a.127.127,0,0,1,.035.014Zm-22.752.045c-.011-.074.04-.113.09-.153h.026c.009,0,.011.029,0,.039a1.031,1.031,0,0,1-.07.133c0,.012-.027.014-.042.022a.433.433,0,0,1-.015-.049Zm19-4.6-.079-.035.077.02S297.868,22.609,297.868,22.613Zm-19.147,4.912c0-.013-.007-.026-.009-.039-.009-.074.042-.113.09-.153h.026c.009,0,.011.029,0,.039a1.336,1.336,0,0,1-.072.133C278.758,27.516,278.736,27.517,278.721,27.525Zm-.862,1.424a.206.206,0,0,1,.016-.059c0-.012.028-.012.042-.02l.013.049Zm-.446,2.14c.022-.084.04-.158.064-.231h.044c-.015.07-.028.141-.044.209C277.476,31.072,277.448,31.076,277.413,31.09Zm12.75,15.487a.134.134,0,0,1-.009-.037h.026v.039A.048.048,0,0,0,290.164,46.576Zm5.451-1.729a.209.209,0,0,1,.016-.059c0-.012.028-.014.042-.02l.013.049Zm4.1-3.553a.241.241,0,0,1,.015-.108,2.244,2.244,0,0,1,.183-.172h0a.6.6,0,0,1,.062-.057c.057-.035.114-.153.163-.1.1.1-.1.111-.092.176,0,.11-.084.059-.112.1a.166.166,0,0,1-.22.16Zm2.385-1.888a1.172,1.172,0,0,1-.017.135c-.119,0-.09.119-.13.182s-.07.182-.161.239c-.048.029-.09.074-.028.125-.015.014-.027.029-.042.041-.05.035-.1.072-.15.106a.686.686,0,0,1-.085.041.285.285,0,0,1,.015-.108c.037-.068.088-.129.128-.2.1-.164.266-.282.319-.481.006-.041.088-.061.149-.092Zm-1.073.695a2.177,2.177,0,0,1-.22.352,1.425,1.425,0,0,0-.31.428.126.126,0,0,1-.057.057c-.02.01-.053.02-.064.01a.071.071,0,0,1-.022-.065,1.677,1.677,0,0,1,.183-.311,2.865,2.865,0,0,0,.257-.366.868.868,0,0,1,.183-.168l.04.018c.015.006.013.027.007.037Zm.259-.411v.033c-.07.037-.079.112-.112.172,0,.012-.05.016-.061,0s-.027-.055-.02-.063c.042-.045.1-.08.088-.155Zm.319-.493v.025l-.035-.014a.07.07,0,0,1,0-.025A.175.175,0,0,1,301.609,39.2Zm-.5.2c-.073.09-.064.221-.161.3-.009,0-.154.268-.16.278l-.171.264-.018-.01a1.07,1.07,0,0,1-.083.076.2.2,0,0,1-.062.018l.009-.082v-.027a3.671,3.671,0,0,0,.5-.8.19.19,0,0,1,.055-.059c.02-.014.051-.027.066-.02s.037.061.027.07Zm.327-.712c-.02-.094.046-.166.073-.248a2.316,2.316,0,0,1,.165-.391c.068-.123.051-.276.183-.391.037-.031.026-.119.052-.176.011-.025.055-.039.084-.057a.223.223,0,0,1,0,.07c-.049.131-.1.26-.15.391V37.9c-.1.112-.031.256-.119.38a1.994,1.994,0,0,0-.149.36c-.075.166-.158.331-.237.495a.279.279,0,0,1-.081,0,.045.045,0,0,1-.027-.039c0-.035,0-.1.013-.106.138-.033.081-.221.193-.305ZM299.7,40.514l-.072.027a.186.186,0,0,1,.015-.057c0-.012.029-.014.044-.02Zm.881-13.329.112-.014-.022.068a.251.251,0,0,1-.075-.012c-.009,0-.011-.02-.015-.035Zm.868-.207c-.013,0-.031.016-.037,0a.46.46,0,0,1-.05-.055.5.5,0,0,1-.046-.061.06.06,0,0,1,.015-.039Zm-.686.372a.2.2,0,0,1,0,.057l-.064-.029.022-.049c.017.016.037.018.042.029Zm.477-.857a.1.1,0,0,1,.063.012.515.515,0,0,1,.059.07l.018.051c-.024,0-.046-.02-.072-.025a.29.29,0,0,0-.072,0,.1.1,0,0,1-.028-.065s.02-.033.031-.035Zm-.943-1.661a.576.576,0,0,1,.079.1c.024.043.1.057.066.137L300.365,25c-.053-.065-.081-.1-.1-.131s0-.027.015-.039.02,0,.024.01Zm-.257.129c.009.014,0,.039,0,.059l-.1-.068.026-.049a.44.44,0,0,1,.075.067Zm-1.011-1.547c.064.02.15.016.183.094a.289.289,0,0,1,.015.049.1.1,0,0,1-.04,0,1.423,1.423,0,0,1-.2-.078c-.031-.02-.079-.078-.072-.088.048-.061.077.022.11.031Zm-1-.749c-.02,0-.053.023-.062.016a.411.411,0,0,1-.069-.08c.143.051.139.067.132.072Zm.02-.043-.147-.049h0Zm-.194-.068c-.081-.031-.084-.047-.09-.063a.579.579,0,0,1,.09.07Zm-.4-.38a.559.559,0,0,1,.114.022c.009,0,.009.029.015.051a.192.192,0,0,1-.066,0,.341.341,0,0,1-.079-.041.105.105,0,0,1,.017-.023Zm-6.892-3.68c.088-.051.09.035.117.074,0,0-.013.029-.029.063-.039-.014-.079-.023-.117-.041a.339.339,0,0,1-.068-.051C290.5,18.522,290.529,18.51,290.56,18.493Zm-4.176,1a.235.235,0,0,1-.016.039h-.024a.244.244,0,0,1,.017-.039Zm-.846.657v.027a.13.13,0,0,1-.035-.014v-.025Zm-.618.368h-.075c.013-.025.024-.053.038-.078s.013-.014.033-.031c.049-.055.116-.119.205-.067.013,0,.013.043.018.065C285.037,20.361,285,20.506,284.92,20.514Zm-2.268,1.737a.059.059,0,0,1,.024-.043.172.172,0,0,1,.055,0l-.037.072Zm.215-.18v-.039a.726.726,0,0,1,.079-.074.029.029,0,0,1,.025,0,.16.16,0,0,1,.041.053l-.02.045Zm.259-.276v.01c.11-.084.22-.17.332-.252a.047.047,0,0,1,.044,0,.18.18,0,0,1,0,.078c-.145.031-.218.17-.33.248a.173.173,0,0,1-.084.012.381.381,0,0,1,.018-.086A.064.064,0,0,1,283.125,21.8Z" transform="translate(-226.839 -18.26)"/><path class="a" d="M60.783,230.438A25.658,25.658,0,0,0,55.354,217.3a7.543,7.543,0,0,0-.55-.657,14.089,14.089,0,0,0-1.519-1.465c-.325-.28-.563-.372-1.481-1.164-.325-.282-1.448-1.047-1.989-1.489-.391-.321-.057-.117.183.01a7.04,7.04,0,0,1,.734.454,33.493,33.493,0,0,1,3.426,2.6,38.216,38.216,0,0,0-4.244-3.427c-1.914-1.369-4.147-1.861-6.327-2.467a13.918,13.918,0,0,0-3.016-.573c-1.761-.1-1.723,0-3.161,0a3.71,3.71,0,0,0-2.772,1.023,8.841,8.841,0,0,0-1.38,1.956,3.307,3.307,0,0,0,.217,4.036c.409.485.917.082,1.651-.319a5.067,5.067,0,0,1,.591-.268,17.372,17.372,0,0,1,2.793-.875,8.789,8.789,0,0,1,4.565.391c8.261,3.387,11.646,7.73,12.361,13.72.367,3.067.873,5.2-1.185,11.366A19.182,19.182,0,0,1,36.541,253.2c.222-3.291.448-5.728.6-6.82,1.734-12.437,9.233-10.318,5.176-12.961-2.95-1.921-2.95-1.921-6.422-3.926-4.264-2.467-3.881,2.563-5.552,7.239-.439,1.226-2.1,6.121-5.218,13.452q-.618-.512-1.217-1.084a35.372,35.372,0,0,1-4.855-6.368,12.5,12.5,0,0,1-1.156-2.367c-.479-1.24-.868-2.52-1.233-3.6h0a3.335,3.335,0,0,0,.132.759,22.636,22.636,0,0,1,.611,2.494,16.984,16.984,0,0,1-.734-2.068,17.906,17.906,0,0,1-.872-3.326,23.259,23.259,0,0,0,1.433,5.726c-.461-1.043-3.037-3.913-2.167-11.983.127-.554.963-4.3,1.556-5.912-.171.2-2.077,5.947-2.077,5.947-.031.685-.2,3.475-.231,4.161-.09.92-.106.29-.108.016.037-.409.062-1.25.09-2.011a15.424,15.424,0,0,1,.156-1.72,2.082,2.082,0,0,1,.094-.446c.385-2.567.15-3.559,1.835-7.023.3-.614,1.233-2,1.62-2.579a1.1,1.1,0,0,0-.356.346,16.2,16.2,0,0,0-1.912,3.226,20.51,20.51,0,0,0-1.178,3.247c-.589,1.911-1.2,7.493-1.27,7.483,0-.239-.119-1.352-.11-1.589.106-2.631.3-5.02.3-5.02a48.868,48.868,0,0,0-.422,7.021c.127.812-.217-.364-.312-1.322a28.7,28.7,0,0,0,.983,6.5,22.752,22.752,0,0,1-.694-11.427c0-.029-.835,3.772-.884,4a67.768,67.768,0,0,1,1.134-9.338c-.183.307-1.343,7.96-1.365,8.285a18.756,18.756,0,0,0-.066,2.712c-.11-.182-.235-.994-.066-3.923a19.391,19.391,0,0,0-.246,2.6,16.005,16.005,0,0,0,.514,5.537,21.717,21.717,0,0,0,1.708,5.617,30.925,30.925,0,0,0,3.648,6.479,24.221,24.221,0,0,0,1.738,2.109,20.541,20.541,0,0,0,3.081,2.934c.321.217.6.409.862.587-1.149,2.559-2.44,5.329-3.883,8.272-5.738,11.711-9.672,18.527-11.965,19.923,6.7,0,12.782-9.911,19.732-25.487a15.058,15.058,0,0,0,1.71.72,10.351,10.351,0,0,0,2.183.493c-.787,9.649-1.719,20.446-1.985,24.259-.659,9.447-4.266,12.417,3.27,16.789,6.152,3.565,3.341-2.621,3.341-7.507,0-3.854.117-15.7.44-26.575.072-2.393.165-4.7.27-6.816a24.569,24.569,0,0,0,7.594-1.317,22.153,22.153,0,0,0,5.872-3.029,28.413,28.413,0,0,0,9.884-13.3A27.806,27.806,0,0,0,60.783,230.438ZM19.46,244.612q-.708-1.227-1.413-2.453c.039-.014.044.074.083.063.47.806.974,1.51,1.446,2.316Zm9.666,8.123c1.928-4.844,3.185-7.9,3.009-5.689-.139,1.747-.521,3.817-.89,6.456A14.308,14.308,0,0,1,29.126,252.734Zm15.215-.827a18.52,18.52,0,0,1-7.85,2.046q.022-.346.044-.681a12.886,12.886,0,0,0,2.98-.143,17.53,17.53,0,0,0,3.2-.808,39.36,39.36,0,0,0,4.758-2.152C46.761,250.537,44.519,251.807,44.341,251.907Z" transform="translate(-7.24 -171.747)"/></svg>