<svg xmlns="http://www.w3.org/2000/svg" width="136.505" height="88.266" viewBox="0 0 136.505 88.266"><defs><style>.a{fill:#ac1e25;}.b{fill:#ee4036;}.c{fill:#25a9e0;}.d{fill:#1b75bb;}.e{fill:#2d3480;}.f{fill:#e21e25;}.g{fill:#1b92d0;}.h{fill:#0d0e0f;}</style></defs><g transform="translate(44.259 0)"><g transform="translate(12.077 27.722)"><path class="a" d="M392.725,225.9,368.8,239.807l11.94,6.885,23.994-13.861Z" transform="translate(-368.8 -225.9)"/></g><path class="b" d="M485.408,135,473.4,141.93v13.861l12.008,6.93Z" transform="translate(-437.398 -128.07)"/><path class="c" d="M316,135l12.008,6.93v13.861L316,162.722Z" transform="translate(-316 -128.07)"/><path class="d" d="M328.008,225.9,352,239.784l-11.985,6.908L316,232.83Z" transform="translate(-316 -198.178)"/><path class="a" d="M392.494,104.7,368.5,118.561l12.008,6.908L404.5,111.63Z" transform="translate(-356.492 -104.7)"/><path class="e" d="M380.763,256.3c-5.993,3.454-11.963,6.93-11.963,6.953l11.917,6.908,12.008-6.931C392.725,263.208,386.755,259.754,380.763,256.3Z" transform="translate(-356.723 -221.625)"/><path class="d" d="M328.008,104.7,352,118.561l-11.985,6.908L316,111.63Z" transform="translate(-316 -104.7)"/><path class="e" d="M380.508,148.838l11.985-6.908L380.508,135,368.5,141.93Z" transform="translate(-356.492 -128.07)"/><path class="f" d="M473.4,104.7v13.861l12.008-6.93Z" transform="translate(-437.398 -104.7)"/><path class="g" d="M328.008,104.7v13.861L316,111.63Z" transform="translate(-316 -104.7)"/></g><g transform="translate(0 68.481)"><path class="h" d="M136.109,416.84v.526c0,4-2.7,6.519-6.7,6.519-4.094,0-6.908-2.516-6.908-6.519v-6.747c0-4,2.4-6.519,6.908-6.519,4,0,6.7,2.516,6.7,6.519v.5h-4.094v-.412a2.543,2.543,0,0,0-2.7-2.813,2.5,2.5,0,0,0-2.562,2.813V417.3a2.512,2.512,0,0,0,2.562,2.813,2.544,2.544,0,0,0,2.7-2.813v-.435h4.094Z" transform="translate(-122.5 -404.1)"/><path class="h" d="M197.131,420.716h7.159v3.8H192.9V405.3h4.231Z" transform="translate(-176.797 -405.026)"/><path class="h" d="M254.232,416.645v4.071h8.028v3.8H250V405.3h11.985v3.82h-7.754v3.8h6.862v3.751h-6.862Z" transform="translate(-220.837 -405.026)"/><path class="h" d="M307.1,424.513l5.558-19.213h4.552l5.535,19.213H318.4l-.8-3.042h-5.581l-.755,3.042Zm5.833-6.633h3.774l-1.9-7.434Z" transform="translate(-264.877 -405.026)"/><path class="h" d="M392.063,424.513l-2.516-6.816h-2.516v6.816H382.8V405.3h7.113c3.843,0,6.633,2.424,6.633,6.084a5.925,5.925,0,0,1-2.836,5.329l3.019,7.8Zm-5.032-15.485v4.963h2.4a2.453,2.453,0,0,0,2.768-2.516c0-1.487-1.052-2.447-2.768-2.447Z" transform="translate(-323.262 -405.026)"/><path class="h" d="M465.109,416.84v.526c0,4-2.7,6.519-6.7,6.519-4.094,0-6.908-2.516-6.908-6.519v-6.747c0-4,2.4-6.519,6.908-6.519,4,0,6.7,2.516,6.7,6.519v.5h-4.094v-.412a2.544,2.544,0,0,0-2.7-2.813,2.517,2.517,0,0,0-2.585,2.813V417.3a2.516,2.516,0,0,0,2.585,2.813,2.544,2.544,0,0,0,2.7-2.813v-.435h4.094Z" transform="translate(-376.248 -404.1)"/><path class="h" d="M533.507,417.366c0,4-2.813,6.519-6.953,6.519s-6.953-2.516-6.953-6.519v-6.747c0-4,2.4-6.519,6.953-6.519,4.163,0,6.953,2.516,6.953,6.519Zm-9.675-.091a2.723,2.723,0,1,0,5.444,0V410.71a2.723,2.723,0,1,0-5.444,0Z" transform="translate(-428.772 -404.1)"/><path class="h" d="M606.475,411.979v5.878c0,4.094-2.562,6.656-7.113,6.656H592.5V405.3h6.862C603.914,405.323,606.475,407.885,606.475,411.979Zm-9.721-2.859v11.6h2.63a2.629,2.629,0,0,0,2.859-2.951v-5.7a2.639,2.639,0,0,0-2.859-2.951Z" transform="translate(-484.997 -405.026)"/><path class="h" d="M669.854,416.645v4.071h8.028v3.8H665.6V405.3h11.985v3.82h-7.754v3.8h6.862v3.751h-6.839Z" transform="translate(-541.377 -405.026)"/></g></svg>