<svg xmlns="http://www.w3.org/2000/svg" xmlns:xlink="http://www.w3.org/1999/xlink" width="135.493" height="146.629" viewBox="0 0 135.493 146.629"><defs><style>.a{fill:url(#a);}.b{fill:url(#b);}.c{fill:url(#c);}.d{fill:url(#d);}.e{fill:#fff;}</style><linearGradient id="a" x1="0.096" y1="0.856" x2="0.899" y2="0.144" gradientUnits="objectBoundingBox"><stop offset="0" stop-color="#fcee39"/><stop offset="1" stop-color="#f37b3d"/></linearGradient><linearGradient id="b" x1="0.086" y1="0.095" x2="0.996" y2="0.953" gradientUnits="objectBoundingBox"><stop offset="0" stop-color="#ef5a6b"/><stop offset="0.57" stop-color="#f26f4e"/><stop offset="1" stop-color="#f37b3d"/></linearGradient><linearGradient id="c" x1="0.901" y1="0.913" x2="0.179" y2="0.264" gradientUnits="objectBoundingBox"><stop offset="0" stop-color="#7c59a4"/><stop offset="0.385" stop-color="#af4c92"/><stop offset="0.765" stop-color="#dc4183"/><stop offset="0.957" stop-color="#ed3d7d"/></linearGradient><linearGradient id="d" x1="0.914" y1="0.076" x2="0.189" y2="0.778" gradientUnits="objectBoundingBox"><stop offset="0" stop-color="#ef5a6b"/><stop offset="0.364" stop-color="#ee4e72"/><stop offset="1" stop-color="#ed3d7d"/></linearGradient></defs><path class="a" d="M130.812,72.83a5.205,5.205,0,0,0,1.691-3.606,5.274,5.274,0,0,0-4.959-5.522,5.5,5.5,0,0,0-3.719,1.24h0L29.38,116.671a11.071,11.071,0,0,0-5.3,4.621,11.345,11.345,0,0,0,4.057,15.665,11.593,11.593,0,0,0,12.059-.225h0c.225-.225.564-.338.789-.564L128.9,74.408a14.318,14.318,0,0,0,1.916-1.578Z" transform="translate(2.878 8.089)"/><path class="b" d="M128.606,73.369h0L56.7,2.818a8.695,8.695,0,0,0-15.1,5.86h0a8.632,8.632,0,0,0,2.367,5.973h0a11.937,11.937,0,0,0,1.352,1.127L121.28,80.807h0a5.8,5.8,0,0,0,3.381,1.465,5.274,5.274,0,0,0,5.522-4.959A5.632,5.632,0,0,0,128.606,73.369Z" transform="translate(5.309)"/><path class="c" d="M64.353,63.707c-.113,0-44.4-34.937-45.306-35.5h0l-2.029-1.014A12.612,12.612,0,0,0,5.973,49.732h0a9.938,9.938,0,0,0,2.254,1.014c.451.225,51.166,21.188,51.166,21.188h0a4.836,4.836,0,0,0,4.959-8.227Z" transform="translate(0.025 3.35)"/><path class="d" d="M55.565,0A9.182,9.182,0,0,0,50.38,1.691L5.525,31.895c-.113.113-.225.113-.225.225H5.187A12.56,12.56,0,0,0,8.23,54.1a12.364,12.364,0,0,0,11.721-1.578h0a10.532,10.532,0,0,0,2.029-1.8L60.974,15.553h0a8.7,8.7,0,0,0,3.381-6.875h0A8.779,8.779,0,0,0,55.565,0Z" transform="translate(0.023)"/><g transform="translate(39.02 42.15)"><rect width="57.478" height="57.478"/><rect class="e" width="21.526" height="3.606" transform="translate(4.959 46.658)"/><g transform="translate(4.733 7.1)"><path class="e" d="M38.8,51.7l1.691-1.578a1.919,1.919,0,0,0,1.465.9q1.014,0,1.014-1.352V43.7h2.592v5.973a3.15,3.15,0,0,1-3.494,3.494A3.41,3.41,0,0,1,38.8,51.7Z" transform="translate(-38.8 -43.7)"/><path class="e" d="M45.3,43.8h7.551v2.141H47.892v1.465H52.4v2.029H47.892V50.9h5.072v2.254H45.413Z" transform="translate(-37.974 -43.687)"/><path class="e" d="M55.318,46.054H52.5V43.8h8.227v2.254H57.91v7.1H55.318Z" transform="translate(-37.06 -43.687)"/><path class="e" d="M39,54h4.846a4.173,4.173,0,0,1,2.592.789A2.229,2.229,0,0,1,47,56.367h0a2.2,2.2,0,0,1-1.465,2.141,2.195,2.195,0,0,1,1.8,2.254h0c0,1.578-1.352,2.592-3.494,2.592H39Zm5.41,2.93c0-.564-.451-.789-1.127-.789H41.592v1.691H43.17c.789-.113,1.24-.338,1.24-.9Zm-.9,2.7H41.479v1.691h2.029c.789,0,1.24-.338,1.24-.9h0C44.748,59.86,44.3,59.635,43.508,59.635Z" transform="translate(-38.775 -42.392)"/><path class="e" d="M46.8,54h4.4a3.961,3.961,0,0,1,3.043,1.014,2.806,2.806,0,0,1,.789,2.141h0a3.111,3.111,0,0,1-1.916,2.93l2.254,3.268h-2.93l-1.916-2.818H49.392v2.818H46.8Zm4.283,4.508c.9,0,1.352-.451,1.352-1.127h0c0-.789-.564-1.127-1.352-1.127H49.392v2.254Z" transform="translate(-37.784 -42.392)"/><path class="e" d="M57.257,54h2.479l3.945,9.467H60.864l-.676-1.691H56.581L55.9,63.467H53.2Zm2.254,5.635L58.5,57.043l-1.014,2.592Z" transform="translate(-36.971 -42.392)"/><path class="e" d="M62.8,54h2.592v9.354H62.8Z" transform="translate(-35.752 -42.392)"/><path class="e" d="M65.7,54h2.367L71.9,58.959V54h2.592v9.354H72.237l-3.945-5.072v5.184H65.7Z" transform="translate(-35.383 -42.392)"/><path class="e" d="M73.7,62.015l1.465-1.691a4.443,4.443,0,0,0,3.043,1.127c.676,0,1.127-.225,1.127-.676h0c0-.451-.338-.564-1.578-.9-2.029-.451-3.494-1.014-3.494-2.93h0c0-1.691,1.352-3.043,3.606-3.043A6.008,6.008,0,0,1,81.7,55.14l-1.352,1.8a5.132,5.132,0,0,0-2.592-.9c-.676,0-.9.225-.9.564h0c0,.451.338.564,1.578.9,2.141.451,3.494,1.127,3.494,2.93h0c0,1.916-1.465,3.043-3.832,3.043A5.966,5.966,0,0,1,73.7,62.015Z" transform="translate(-34.367 -42.404)"/></g></g></svg>