<svg xmlns="http://www.w3.org/2000/svg" width="152.476" height="88.28" viewBox="0 0 152.476 88.28"><defs><style>.a{fill:#fdf151;}.b{fill:#0024f5;}.c{fill:#75fac9;}</style></defs><g transform="translate(0 0)"><rect class="a" width="143.239" height="64.978" transform="translate(0 17.166)"/><g transform="translate(106.295 1.632)"><rect class="b" width="15.143" height="4.83" transform="translate(0 0)"/></g><g transform="translate(84.951 1.632)"><path class="b" d="M383.563,291.416H378.7V267.2h16.905v4.863H383.563Z" transform="translate(-378.7 -267.2)"/></g><g transform="translate(87.366 8.746)"><rect class="b" width="7.245" height="4.83" transform="translate(0 0)"/></g><g transform="translate(52.544 0)"><path class="b" d="M293.14,289.679a13.74,13.74,0,1,1,13.74-13.74A13.761,13.761,0,0,1,293.14,289.679Zm0-22.649a8.91,8.91,0,1,0,8.91,8.91A8.921,8.921,0,0,0,293.14,267.03Z" transform="translate(-279.4 -262.2)"/></g><g transform="translate(106.997 60.975)"><path class="b" d="M464.346,476.275h-4.438a13.616,13.616,0,0,1-1.795-27.12,13.5,13.5,0,0,1,11.39,3.851l-3.427,3.427a8.8,8.8,0,1,0-6.2,15.045h2.448l3.035-3.035v-5.613h-8.028V458h12.891v12.467Z" transform="translate(-446.249 -449.035)"/></g><g transform="translate(111.484 32.212)"><path class="b" d="M476.905,385.018H460V360.9h16.905v4.863H464.863v14.392h12.043Z" transform="translate(-460 -360.9)"/></g><g transform="translate(113.899 39.326)"><rect class="b" width="7.245" height="4.83"/></g><g transform="translate(111.745 4.079)"><rect class="b" width="4.83" height="21.768" transform="translate(0 0)"/></g><g transform="translate(20.92 64.717)"><rect class="b" width="4.83" height="21.833"/></g><g transform="translate(33.811 62.367)"><rect class="b" width="4.83" height="24.183" transform="translate(0 0)"/></g><g transform="translate(55.579 62.367)"><rect class="b" width="4.83" height="24.183" transform="translate(0 0)"/></g><g transform="translate(66.022 62.367)"><rect class="b" width="4.83" height="24.183" transform="translate(0 0)"/></g><g transform="translate(15.665 62.302)"><rect class="b" width="15.143" height="4.83" transform="translate(0 0)"/></g><g transform="translate(13.348 31.461)"><path class="c" d="M186.943,383.436h-4.928l-5.124-12.3-5.124,12.3h-4.928L159.3,360.1l4.6-1.5,5.679,17.525,4.961-11.879h4.732l4.961,11.879L189.88,358.6l4.6,1.5Z" transform="translate(-159.3 -358.6)"/></g><g transform="translate(36.226 73.235)"><rect class="b" width="21.768" height="4.83"/></g><g transform="translate(74.443 61.617)"><path class="b" d="M369.867,477.664l-4.145-1.73V461.15l-9.954,15.8L351.3,475.64v-17.2l-1.436,1.371-3.362-3.525L352.048,451l4.079,1.762v14.49l9.954-15.8,4.471,1.305v17.33l1.534-1.534,3.427,3.427Z" transform="translate(-346.5 -451)"/></g><g transform="translate(51.238 31.657)"><path class="b" d="M285.582,385.472a13.324,13.324,0,1,1,11.064-23.661l.914-1.469,4.471,1.273v22.258H297.2V370.068l-8.975,14.327Zm3.1-21.409a8.463,8.463,0,0,0-3.59,16.122L294,365.923A8.569,8.569,0,0,0,288.683,364.063Z" transform="translate(-275.4 -359.2)"/></g><g transform="translate(83.744 32.277)"><g transform="translate(0 2.35)"><rect class="b" width="4.83" height="21.768"/></g><g transform="translate(0 0)"><path class="b" d="M386.847,376.015H375V361.1h11.847a7.457,7.457,0,1,1,0,14.915Zm-7.017-4.83h7.017a2.611,2.611,0,1,0,0-5.222H379.83Z" transform="translate(-375 -361.1)"/></g><g transform="translate(10.737 9.371)"><rect class="b" width="4.83" height="15.828" transform="translate(0 2.514) rotate(-31.365)"/></g></g><g transform="translate(134.754 8.746)"><rect class="b" width="16.938" height="4.83" transform="translate(0 0)"/></g><g transform="translate(30.482 0.261)"><path class="b" d="M225.373,270.14a4.086,4.086,0,0,0-1.11-1.566,4.012,4.012,0,0,0-2.676-.881c-2.285,0-3.492,1.371-3.492,2.97,0,.751.261,2.023,2.676,3l2.48,1.012c4.569,1.86,5.809,4.438,5.809,7.278a7.616,7.616,0,0,1-7.963,7.931,7.217,7.217,0,0,1-5.809-2.48,8.023,8.023,0,0,1-2.089-4.83l3.753-.816A5.479,5.479,0,0,0,218,284.924a3.921,3.921,0,0,0,3.231,1.469,3.978,3.978,0,0,0,4.079-4.145c0-2.513-1.926-3.557-3.557-4.243l-2.382-1.012c-2.023-.849-5.059-2.546-5.059-6.266,0-3.329,2.611-6.527,7.245-6.527a7.341,7.341,0,0,1,4.961,1.664,8.551,8.551,0,0,1,1.893,2.48Z" transform="translate(-212.743 -263.808)"/><path class="b" d="M220.155,289.468a7.661,7.661,0,0,1-6.136-2.611,8.3,8.3,0,0,1-2.187-5.059l-.033-.359,4.569-1.012v.49a4.984,4.984,0,0,0,.946,2.9,3.492,3.492,0,0,0,2.9,1.338,3.564,3.564,0,0,0,3.688-3.753c0-2.187-1.6-3.166-3.3-3.851l-2.382-1.012c-3.525-1.469-5.287-3.688-5.287-6.625,0-3.459,2.611-6.919,7.637-6.919a7.779,7.779,0,0,1,5.222,1.762,9.243,9.243,0,0,1,1.991,2.611l.163.326-3.786,2.219-.163-.424a3.606,3.606,0,0,0-1.012-1.4,3.532,3.532,0,0,0-2.415-.783c-1.86,0-3.068,1.012-3.068,2.578,0,.424,0,1.664,2.415,2.644l2.48,1.012c4.145,1.7,6.07,4.112,6.07,7.637C228.542,286.041,225.083,289.468,220.155,289.468Zm-7.474-7.408a7.685,7.685,0,0,0,1.926,4.243,6.832,6.832,0,0,0,5.515,2.35,7.222,7.222,0,0,0,7.572-7.539c0-1.991-.587-4.863-5.581-6.886l-2.48-1.012c-1.926-.783-2.937-1.926-2.937-3.394,0-1.664,1.208-3.362,3.884-3.362a4.225,4.225,0,0,1,3.982,2.285l2.317-1.371a8.231,8.231,0,0,0-1.632-2.023,6.986,6.986,0,0,0-4.7-1.566c-4.471,0-6.821,3.068-6.821,6.135,0,2.611,1.567,4.536,4.8,5.907l2.382,1.012c1.142.457,3.818,1.566,3.818,4.6a4.541,4.541,0,0,1-8.028,2.937,5.767,5.767,0,0,1-1.11-2.9Z" transform="translate(-211.8 -263)"/></g><g transform="translate(135.798 61.486)"><path class="b" d="M548.073,457.74a4.087,4.087,0,0,0-1.11-1.567,4.013,4.013,0,0,0-2.676-.881c-2.284,0-3.492,1.371-3.492,2.97,0,.751.261,2.023,2.676,3l2.48,1.012c4.569,1.86,5.809,4.438,5.809,7.278a7.616,7.616,0,0,1-7.963,7.931,7.218,7.218,0,0,1-5.809-2.48,8.024,8.024,0,0,1-2.089-4.83l3.753-.816a5.48,5.48,0,0,0,1.044,3.166,3.921,3.921,0,0,0,3.231,1.469,3.978,3.978,0,0,0,4.079-4.145c0-2.513-1.925-3.557-3.557-4.243l-2.382-1.012c-2.023-.849-5.059-2.546-5.059-6.266,0-3.329,2.611-6.527,7.245-6.527a7.341,7.341,0,0,1,4.961,1.664,8.551,8.551,0,0,1,1.893,2.48Z" transform="translate(-535.443 -451.408)"/><path class="b" d="M542.855,477.068a7.661,7.661,0,0,1-6.135-2.611,8.3,8.3,0,0,1-2.187-5.059l-.033-.359,4.569-1.012v.49a4.984,4.984,0,0,0,.946,2.9,3.493,3.493,0,0,0,2.9,1.338,3.564,3.564,0,0,0,3.688-3.753c0-2.187-1.6-3.166-3.3-3.851l-2.382-1.012c-3.525-1.469-5.287-3.688-5.287-6.625,0-3.459,2.611-6.919,7.637-6.919a7.779,7.779,0,0,1,5.222,1.762,9.242,9.242,0,0,1,1.991,2.611l.163.326-3.786,2.219-.163-.424a3.608,3.608,0,0,0-1.012-1.4,3.532,3.532,0,0,0-2.415-.783c-1.86,0-3.068,1.012-3.068,2.578,0,.424,0,1.664,2.415,2.643l2.48,1.012c4.145,1.7,6.07,4.112,6.07,7.637C551.242,473.641,547.783,477.068,542.855,477.068Zm-7.474-7.376a7.685,7.685,0,0,0,1.926,4.243,6.832,6.832,0,0,0,5.516,2.35,7.222,7.222,0,0,0,7.571-7.539c0-1.991-.587-4.863-5.581-6.886l-2.48-1.012c-1.926-.783-2.937-1.925-2.937-3.394,0-1.664,1.208-3.362,3.884-3.362a4.225,4.225,0,0,1,3.982,2.285l2.317-1.371a8.226,8.226,0,0,0-1.632-2.023,6.986,6.986,0,0,0-4.7-1.567c-4.471,0-6.821,3.068-6.821,6.136,0,2.611,1.567,4.536,4.8,5.907l2.382,1.012c1.142.457,3.818,1.567,3.818,4.6a4.541,4.541,0,0,1-8.028,2.937,5.767,5.767,0,0,1-1.11-2.9Z" transform="translate(-534.5 -450.6)"/></g></g></svg>